<mxfile host="65bd71144e">
    <diagram name="Page-1" id="aRkRuxBFELAMFq911tWw">
        <mxGraphModel dx="1083" dy="651" grid="1" gridSize="10" guides="1" tooltips="1" connect="1" arrows="1" fold="1" page="1" pageScale="1" pageWidth="850" pageHeight="1100" math="0" shadow="0">
            <root>
                <mxCell id="0"/>
                <mxCell id="1" parent="0"/>
                <mxCell id="56" value="VPN gateway network" style="rounded=0;whiteSpace=wrap;html=1;fillColor=none;verticalAlign=bottom;labelPosition=center;verticalLabelPosition=top;align=center;" vertex="1" parent="1">
                    <mxGeometry x="465" y="425" width="365" height="250" as="geometry"/>
                </mxCell>
                <mxCell id="41" style="rounded=0;orthogonalLoop=1;jettySize=auto;html=1;exitX=0.946;exitY=0.299;exitDx=0;exitDy=0;exitPerimeter=0;entryX=0.011;entryY=0.356;entryDx=0;entryDy=0;entryPerimeter=0;fillColor=#dae8fc;strokeColor=#6c8ebf;flowAnimation=0;shadow=0;elbow=vertical;startArrow=classic;startFill=1;endArrow=none;endFill=0;" parent="1" edge="1">
                    <mxGeometry relative="1" as="geometry">
                        <mxPoint x="637" y="570" as="sourcePoint"/>
                        <mxPoint x="770" y="570" as="targetPoint"/>
                    </mxGeometry>
                </mxCell>
                <mxCell id="42" value="&lt;span style=&quot;color: rgb(0, 0, 0);&quot;&gt;Response&lt;/span&gt;" style="edgeLabel;html=1;align=center;verticalAlign=middle;resizable=0;points=[];labelBackgroundColor=none;" parent="41" vertex="1" connectable="0">
                    <mxGeometry x="0.0643" relative="1" as="geometry">
                        <mxPoint y="10" as="offset"/>
                    </mxGeometry>
                </mxCell>
                <mxCell id="36" style="rounded=0;orthogonalLoop=1;jettySize=auto;html=1;exitX=0.946;exitY=0.299;exitDx=0;exitDy=0;exitPerimeter=0;entryX=0.011;entryY=0.356;entryDx=0;entryDy=0;entryPerimeter=0;fillColor=#d5e8d4;strokeColor=#82b366;flowAnimation=0;shadow=0;elbow=vertical;" parent="1" source="31" target="35" edge="1">
                    <mxGeometry relative="1" as="geometry">
                        <mxPoint x="640" y="560" as="sourcePoint"/>
                        <mxPoint x="767" y="560" as="targetPoint"/>
                    </mxGeometry>
                </mxCell>
                <mxCell id="29" value="Internet" style="rounded=0;whiteSpace=wrap;html=1;fillColor=none;verticalAlign=bottom;labelPosition=center;verticalLabelPosition=top;align=center;" parent="1" vertex="1">
                    <mxGeometry x="306" y="425" width="125" height="250" as="geometry"/>
                </mxCell>
                <mxCell id="39" style="edgeStyle=orthogonalEdgeStyle;html=1;exitX=1;exitY=0.5;exitDx=0;exitDy=0;exitPerimeter=0;entryX=0;entryY=0.5;entryDx=0;entryDy=0;entryPerimeter=0;fillColor=#d5e8d4;strokeColor=#82b366;" parent="1" source="ql4odA1ZGQbVucotu5OM-2" target="27" edge="1">
                    <mxGeometry relative="1" as="geometry">
                        <mxPoint x="281" y="550" as="targetPoint"/>
                    </mxGeometry>
                </mxCell>
                <mxCell id="ql4odA1ZGQbVucotu5OM-2" value="First hop router" style="sketch=0;points=[[0.5,0,0],[1,0.5,0],[0.5,1,0],[0,0.5,0],[0.145,0.145,0],[0.8555,0.145,0],[0.855,0.8555,0],[0.145,0.855,0]];verticalLabelPosition=top;html=1;verticalAlign=bottom;aspect=fixed;align=center;pointerEvents=1;shape=mxgraph.cisco19.rect;prIcon=router;fillColor=none;strokeColor=#005073;labelPosition=center;" parent="1" vertex="1">
                    <mxGeometry x="201" y="535" width="50" height="50" as="geometry"/>
                </mxCell>
                <mxCell id="ql4odA1ZGQbVucotu5OM-8" style="rounded=0;orthogonalLoop=1;jettySize=auto;html=1;exitX=1;exitY=0.4;exitDx=0;exitDy=0;exitPerimeter=0;fillColor=#d5e8d4;strokeColor=#82b366;entryX=0.049;entryY=0.298;entryDx=0;entryDy=0;entryPerimeter=0;" parent="1" target="ql4odA1ZGQbVucotu5OM-2" edge="1">
                    <mxGeometry relative="1" as="geometry">
                        <mxPoint x="73.50000000000006" y="550" as="sourcePoint"/>
                        <mxPoint x="191" y="550" as="targetPoint"/>
                    </mxGeometry>
                </mxCell>
                <mxCell id="17" value="Request to 1.2.3.4" style="edgeLabel;html=1;align=center;verticalAlign=middle;resizable=0;points=[];labelBackgroundColor=none;" parent="ql4odA1ZGQbVucotu5OM-8" vertex="1" connectable="0">
                    <mxGeometry x="-0.0811" y="-1" relative="1" as="geometry">
                        <mxPoint x="5" y="-15" as="offset"/>
                    </mxGeometry>
                </mxCell>
                <mxCell id="ql4odA1ZGQbVucotu5OM-11" value="Client" style="points=[[0.03,0.03,0],[0.5,0,0],[0.97,0.03,0],[1,0.4,0],[0.97,0.745,0],[0.5,1,0],[0.03,0.745,0],[0,0.4,0]];verticalLabelPosition=top;sketch=0;html=1;verticalAlign=bottom;aspect=fixed;align=center;pointerEvents=1;shape=mxgraph.cisco19.workstation;fillColor=#005073;strokeColor=none;labelPosition=center;" parent="1" vertex="1">
                    <mxGeometry x="11" y="540" width="62.5" height="50" as="geometry"/>
                </mxCell>
                <mxCell id="26" value="&lt;font&gt;Intermediary router B&lt;/font&gt;" style="sketch=0;points=[[0.5,0,0],[1,0.5,0],[0.5,1,0],[0,0.5,0],[0.145,0.145,0],[0.8555,0.145,0],[0.855,0.8555,0],[0.145,0.855,0]];verticalLabelPosition=top;html=1;verticalAlign=bottom;aspect=fixed;align=center;pointerEvents=1;shape=mxgraph.cisco19.rect;prIcon=router;fillColor=none;strokeColor=#005073;labelPosition=center;" parent="1" vertex="1">
                    <mxGeometry x="343.5" y="595" width="50" height="50" as="geometry"/>
                </mxCell>
                <mxCell id="49" style="edgeStyle=none;html=1;exitX=1;exitY=0.5;exitDx=0;exitDy=0;exitPerimeter=0;fillColor=#d5e8d4;strokeColor=#82b366;" edge="1" parent="1" source="27" target="46">
                    <mxGeometry relative="1" as="geometry"/>
                </mxCell>
                <mxCell id="27" value="Intermediary router A" style="sketch=0;points=[[0.5,0,0],[1,0.5,0],[0.5,1,0],[0,0.5,0],[0.145,0.145,0],[0.8555,0.145,0],[0.855,0.8555,0],[0.145,0.855,0]];verticalLabelPosition=top;html=1;verticalAlign=bottom;aspect=fixed;align=center;pointerEvents=1;shape=mxgraph.cisco19.rect;prIcon=router;fillColor=none;strokeColor=#005073;labelPosition=center;" parent="1" vertex="1">
                    <mxGeometry x="343.5" y="475" width="50" height="50" as="geometry"/>
                </mxCell>
                <mxCell id="31" value="First hop router" style="sketch=0;points=[[0.5,0,0],[1,0.5,0],[0.5,1,0],[0,0.5,0],[0.145,0.145,0],[0.8555,0.145,0],[0.855,0.8555,0],[0.145,0.855,0]];verticalLabelPosition=top;html=1;verticalAlign=bottom;aspect=fixed;align=center;pointerEvents=1;shape=mxgraph.cisco19.rect;prIcon=router;fillColor=none;strokeColor=#005073;labelPosition=center;" parent="1" vertex="1">
                    <mxGeometry x="590" y="535" width="50" height="50" as="geometry"/>
                </mxCell>
                <mxCell id="35" value="Server" style="sketch=0;points=[[0.015,0.015,0],[0.985,0.015,0],[0.985,0.985,0],[0.015,0.985,0],[0.25,0,0],[0.5,0,0],[0.75,0,0],[1,0.25,0],[1,0.5,0],[1,0.75,0],[0.75,1,0],[0.5,1,0],[0.25,1,0],[0,0.75,0],[0,0.5,0],[0,0.25,0]];verticalLabelPosition=top;html=1;verticalAlign=bottom;aspect=fixed;align=center;pointerEvents=1;shape=mxgraph.cisco19.server;fillColor=#005073;strokeColor=none;labelPosition=center;" parent="1" vertex="1">
                    <mxGeometry x="770" y="525" width="38.5" height="70" as="geometry"/>
                </mxCell>
                <mxCell id="44" style="edgeStyle=orthogonalEdgeStyle;html=1;exitX=0;exitY=0.5;exitDx=0;exitDy=0;exitPerimeter=0;entryX=1;entryY=0.5;entryDx=0;entryDy=0;entryPerimeter=0;fillColor=#dae8fc;strokeColor=#6c8ebf;" parent="1" source="26" target="ql4odA1ZGQbVucotu5OM-2" edge="1">
                    <mxGeometry relative="1" as="geometry"/>
                </mxCell>
                <mxCell id="45" style="rounded=0;orthogonalLoop=1;jettySize=auto;html=1;exitX=1;exitY=0.4;exitDx=0;exitDy=0;exitPerimeter=0;fillColor=#dae8fc;strokeColor=#6c8ebf;entryX=0.049;entryY=0.298;entryDx=0;entryDy=0;entryPerimeter=0;startArrow=classic;startFill=1;endArrow=none;endFill=0;" parent="1" edge="1">
                    <mxGeometry relative="1" as="geometry">
                        <mxPoint x="73.50000000000006" y="570" as="sourcePoint"/>
                        <mxPoint x="203" y="570" as="targetPoint"/>
                    </mxGeometry>
                </mxCell>
                <mxCell id="52" value="Response from 5.6.7.8" style="edgeLabel;html=1;align=center;verticalAlign=middle;resizable=0;points=[];labelBackgroundColor=none;" vertex="1" connectable="0" parent="45">
                    <mxGeometry x="-0.1468" y="2" relative="1" as="geometry">
                        <mxPoint x="11" y="12" as="offset"/>
                    </mxGeometry>
                </mxCell>
                <mxCell id="46" value="VPN gateway 1&lt;br&gt;Public IP 1.2.3.4" style="sketch=0;pointerEvents=1;shadow=0;dashed=0;html=1;strokeColor=none;fillColor=light-dark(#005073, #b2b3b4);aspect=fixed;labelPosition=center;verticalLabelPosition=top;verticalAlign=bottom;align=center;outlineConnect=0;shape=mxgraph.vvd.vpn;" vertex="1" parent="1">
                    <mxGeometry x="490" y="475" width="50" height="50" as="geometry"/>
                </mxCell>
                <mxCell id="47" value="VPN gateway 2&lt;br&gt;Public IP 5.6.7.8" style="sketch=0;pointerEvents=1;shadow=0;dashed=0;html=1;strokeColor=none;fillColor=light-dark(#005073, #b2b3b4);aspect=fixed;labelPosition=center;verticalLabelPosition=top;verticalAlign=bottom;align=center;outlineConnect=0;shape=mxgraph.vvd.vpn;" vertex="1" parent="1">
                    <mxGeometry x="490" y="595" width="50" height="50" as="geometry"/>
                </mxCell>
                <mxCell id="51" style="edgeStyle=none;html=1;entryX=1;entryY=0.5;entryDx=0;entryDy=0;entryPerimeter=0;fillColor=#dae8fc;strokeColor=#6c8ebf;" edge="1" parent="1" source="47" target="26">
                    <mxGeometry relative="1" as="geometry"/>
                </mxCell>
                <mxCell id="54" style="edgeStyle=orthogonalEdgeStyle;html=1;entryX=0;entryY=0.5;entryDx=0;entryDy=0;entryPerimeter=0;fillColor=#d5e8d4;strokeColor=#82b366;" edge="1" parent="1" source="46" target="31">
                    <mxGeometry relative="1" as="geometry"/>
                </mxCell>
                <mxCell id="55" style="edgeStyle=orthogonalEdgeStyle;html=1;entryX=0;entryY=0.5;entryDx=0;entryDy=0;entryPerimeter=0;fillColor=#dae8fc;strokeColor=#6c8ebf;" edge="1" parent="1" source="47" target="31">
                    <mxGeometry relative="1" as="geometry"/>
                </mxCell>
            </root>
        </mxGraphModel>
    </diagram>
</mxfile>